<?xml version="1.0" encoding="UTF-8"?>
<svg xmlns="http://www.w3.org/2000/svg" xmlns:xlink="http://www.w3.org/1999/xlink" width="789.47pt" height="400pt" viewBox="0 0 789.47 400" version="1.1">
<defs>
<clipPath id="clip1">
  <path d="M 0 0 L 789.46875 0 L 789.46875 400 L 0 400 Z M 0 0 "/>
</clipPath>
</defs>
<g id="surface1">
<g clip-path="url(#clip1)" clip-rule="nonzero">
<path style=" stroke:none;fill-rule:nonzero;fill:rgb(0%,0%,0%);fill-opacity:1;" d="M 0 400 L 789.472656 400 L 789.472656 0 L 0 0 Z M 0 400 "/>
</g>
<path style=" stroke:none;fill-rule:nonzero;fill:rgb(100%,100%,100%);fill-opacity:1;" d="M 424.722656 77.503906 L 472.105469 77.503906 L 485.296875 231.222656 L 503.128906 77.503906 L 551.804688 77.503906 L 507.925781 327.828125 L 461.804688 327.828125 "/>
<path style=" stroke:none;fill-rule:nonzero;fill:rgb(100%,100%,100%);fill-opacity:1;" d="M 553.113281 327.828125 L 553.113281 77.503906 L 637.09375 77.503906 L 637.09375 137.257813 L 598.335938 137.257813 L 598.335938 171.175781 L 632.25 171.175781 L 632.25 230.929688 L 598.335938 230.929688 L 598.335938 268.074219 L 637.09375 268.074219 L 637.09375 327.828125 "/>
<path style=" stroke:none;fill-rule:nonzero;fill:rgb(100%,100%,100%);fill-opacity:1;" d="M 650.015625 327.828125 L 650.015625 77.503906 L 695.234375 77.503906 L 695.234375 268.074219 L 729.152344 268.074219 L 729.152344 327.828125 "/>
<path style=" stroke:none;fill-rule:nonzero;fill:rgb(100%,100%,100%);fill-opacity:1;" d="M 387.6875 164.125 C 387.6875 180.34375 390.003906 195.097656 365.773438 195.097656 L 365.773438 132.414063 C 385.558594 132.414063 387.6875 147.90625 387.6875 164.125 M 405.882813 224.207031 C 424.898438 211.714844 431.960938 188.367188 430.851563 155.898438 C 429.320313 111.089844 414.34375 77.949219 373.3125 77.503906 L 322.171875 77.503906 L 322.171875 327.828125 L 366.558594 327.8125 L 366.5625 227.71875 L 391.171875 327.828125 L 438.839844 327.828125 C 427.351563 293.636719 416.835938 258.617188 405.882813 224.207031 "/>
<path style=" stroke:none;fill-rule:nonzero;fill:rgb(100%,100%,100%);fill-opacity:1;" d="M 246.042969 242.230469 L 255.828125 151.453125 L 264.097656 242.230469 Z M 284.363281 77.503906 L 229.183594 77.503906 L 194.589844 297.59375 L 194.589844 77.503906 L 134.90625 77.503906 L 116.648438 186.136719 L 96.066406 77.503906 L 36.320313 77.503906 L 36.320313 327.828125 L 83.960938 327.8125 L 83.992188 234.167969 L 102.539063 327.828125 L 127.988281 327.828125 L 147.753906 233.609375 L 147.753906 327.828125 L 236.546875 327.828125 L 239.804688 295.527344 L 269.070313 295.527344 L 272.171875 327.828125 L 319.007813 327.828125 "/>
<path style=" stroke:none;fill-rule:nonzero;fill:rgb(100%,100%,100%);fill-opacity:1;" d="M 728.324219 116.179688 C 717.734375 116.179688 709.144531 107.59375 709.144531 97.003906 C 709.144531 86.410156 717.734375 77.824219 728.324219 77.824219 C 738.914063 77.824219 747.503906 86.410156 747.503906 97.003906 C 747.503906 107.59375 738.914063 116.179688 728.324219 116.179688 M 728.324219 72.171875 C 714.609375 72.171875 703.496094 83.289063 703.496094 97.003906 C 703.496094 110.714844 714.609375 121.832031 728.324219 121.832031 C 742.039063 121.832031 753.152344 110.714844 753.152344 97.003906 C 753.152344 83.289063 742.039063 72.171875 728.324219 72.171875 "/>
<path style=" stroke:none;fill-rule:nonzero;fill:rgb(100%,100%,100%);fill-opacity:1;" d="M 723.527344 94.996094 C 725.800781 94.984375 731.085938 95.089844 732.085938 94.683594 C 733.28125 94.285156 734.085938 93.25 734.078125 91.671875 C 734.078125 89.867188 733.019531 88.828125 731.414063 88.574219 C 730.289063 88.445313 725.460938 88.496094 723.527344 88.488281 Z M 718.328125 109.9375 L 718.328125 84.097656 L 729.292969 84.097656 C 735.9375 83.808594 738.925781 85.757813 739.425781 91.332031 C 739.355469 95.613281 736.730469 97.980469 732.636719 98.515625 C 736.695313 100.589844 738.714844 105.941406 741.546875 109.9375 L 735.308594 109.9375 C 733.546875 107.375 730.4375 102.4375 728.789063 100.503906 C 727.683594 99.144531 726.152344 99.117188 723.527344 99.136719 L 723.527344 109.9375 "/>
</g>
</svg>
